<svg width="28" height="23" viewBox="0 0 28 23" fill="none" xmlns="http://www.w3.org/2000/svg">
<path d="M22.3165 20.1797H4.7665C4.39525 20.1797 4.0915 20.4891 4.0915 20.8672V22.2422C4.0915 22.6203 4.39525 22.9297 4.7665 22.9297H22.3165C22.6878 22.9297 22.9915 22.6203 22.9915 22.2422V20.8672C22.9915 20.4891 22.6878 20.1797 22.3165 20.1797ZM25.0165 6.42969C23.8985 6.42969 22.9915 7.35352 22.9915 8.49219C22.9915 8.79727 23.059 9.08086 23.1771 9.34297L20.1228 11.2078C19.4731 11.6031 18.6335 11.3797 18.2581 10.7094L14.8198 4.58203C15.2712 4.20391 15.5665 3.63672 15.5665 2.99219C15.5665 1.85352 14.6595 0.929688 13.5415 0.929688C12.4235 0.929688 11.5165 1.85352 11.5165 2.99219C11.5165 3.63672 11.8118 4.20391 12.2632 4.58203L8.82494 10.7094C8.44947 11.3797 7.60572 11.6031 6.96025 11.2078L3.9101 9.34297C4.024 9.08516 4.09572 8.79727 4.09572 8.49219C4.09572 7.35352 3.18869 6.42969 2.07072 6.42969C0.952754 6.42969 0.0415039 7.35352 0.0415039 8.49219C0.0415039 9.63086 0.948535 10.5547 2.0665 10.5547C2.17619 10.5547 2.28588 10.5375 2.39135 10.5203L5.4415 18.8047H21.6415L24.6917 10.5203C24.7971 10.5375 24.9068 10.5547 25.0165 10.5547C26.1345 10.5547 27.0415 9.63086 27.0415 8.49219C27.0415 7.35352 26.1345 6.42969 25.0165 6.42969Z" fill="white"/>
</svg>
