<svg width="27" height="27" viewBox="0 0 27 27" fill="none" xmlns="http://www.w3.org/2000/svg">
<path fill-rule="evenodd" clip-rule="evenodd" d="M13.5 0.0644531C20.6799 0.0644531 26.5 5.88455 26.5 13.0645C26.5 20.2444 20.6799 26.0645 13.5 26.0645C6.3201 26.0645 0.5 20.2444 0.5 13.0645C0.5 5.88455 6.3201 0.0644531 13.5 0.0644531ZM11.2809 16.0454C11.0441 16.2905 10.9131 16.6189 10.916 16.9598C10.919 17.3006 11.0557 17.6267 11.2967 17.8677C11.5378 18.1087 11.8638 18.2455 12.2047 18.2484C12.5455 18.2514 12.8739 18.1204 13.1191 17.8836L17.0191 13.9836C17.2628 13.7398 17.3997 13.4092 17.3997 13.0645C17.3997 12.7197 17.2628 12.3891 17.0191 12.1454L13.1191 8.24535C12.9992 8.12119 12.8557 8.02215 12.6971 7.95402C12.5385 7.88589 12.3679 7.85003 12.1953 7.84853C12.0227 7.84703 11.8515 7.87992 11.6918 7.94528C11.532 8.01065 11.3868 8.10718 11.2648 8.22924C11.1427 8.3513 11.0462 8.49645 10.9808 8.65621C10.9155 8.81598 10.8826 8.98716 10.8841 9.15977C10.8856 9.33239 10.9214 9.50297 10.9896 9.66158C11.0577 9.82018 11.1567 9.96363 11.2809 10.0836L14.2618 13.0645L11.2809 16.0454Z" fill="white"/>
</svg>
