<svg width="36" height="26" viewBox="0 0 36 26" fill="none" xmlns="http://www.w3.org/2000/svg">
<path d="M14.4 17.9196L23.742 12.5625L14.4 7.20536V17.9196ZM35.208 3.9375C35.442 4.77679 35.604 5.90178 35.712 7.33036C35.838 8.75893 35.892 9.99107 35.892 11.0625L36 12.5625C36 16.4732 35.712 19.3482 35.208 21.1875C34.758 22.7946 33.714 23.8304 32.094 24.2768C31.248 24.5089 29.7 24.6696 27.324 24.7768C24.984 24.9018 22.842 24.9554 20.862 24.9554L18 25.0625C10.458 25.0625 5.76 24.7768 3.906 24.2768C2.286 23.8304 1.242 22.7946 0.792 21.1875C0.558 20.3482 0.396 19.2232 0.288 17.7946C0.162 16.3661 0.108 15.1339 0.108 14.0625L0 12.5625C0 8.65179 0.288 5.77679 0.792 3.9375C1.242 2.33036 2.286 1.29464 3.906 0.848214C4.752 0.616072 6.3 0.455357 8.676 0.348214C11.016 0.223214 13.158 0.169643 15.138 0.169643L18 0.0625C25.542 0.0625 30.24 0.348214 32.094 0.848214C33.714 1.29464 34.758 2.33036 35.208 3.9375Z" fill="white"/>
</svg>
